<svg xmlns="http://www.w3.org/2000/svg" width="60" height="58" viewBox="0 0 60 58"><g><g><path d="M57.433 48.284c-3.404 5.992-9.753 9.714-16.569 9.714A18.883 18.883 0 0 1 30 54.541a18.882 18.882 0 0 1-10.865 3.458c-6.815 0-13.164-3.723-16.569-9.715a19.568 19.568 0 0 1-1.91-14.738c1.322-5.011 4.485-9.2 8.906-11.794.454-.266.918-.51 1.389-.737a19.896 19.896 0 0 1-.065-1.594C10.886 8.711 19.46 0 30 0c10.54 0 19.114 8.713 19.114 19.422 0 .537-.023 1.07-.065 1.594.471.227.935.47 1.388.737 4.422 2.594 7.584 6.783 8.906 11.794a19.568 19.568 0 0 1-1.91 14.738zM14.6 19.7a18.734 18.734 0 0 1 4.503-.554c3.95 0 7.742 1.253 10.897 3.472a18.953 18.953 0 0 1 10.897-3.472c1.52 0 3.031.19 4.502.554.002-.093.004-.185.004-.279 0-8.63-6.91-15.652-15.403-15.652s-15.403 7.022-15.403 15.652c0 .094.002.186.003.279zm19.916 18.596a18.815 18.815 0 0 1-9.032 0c-.066 4.195 1.53 8.327 4.516 11.356 2.985-3.029 4.582-7.16 4.516-11.356zM34 34.536a15.782 15.782 0 0 0-1.543-3.79A15.538 15.538 0 0 0 30 27.5a15.543 15.543 0 0 0-2.459 3.246 15.775 15.775 0 0 0-1.543 3.79 15.13 15.13 0 0 0 4.002.538A15.13 15.13 0 0 0 34 34.537zm-9.673-5.675a19.253 19.253 0 0 1 2.727-3.692 15.243 15.243 0 0 0-7.952-2.251c-1.348 0-2.689.182-3.986.538a15.683 15.683 0 0 0 7.42 9.654 19.563 19.563 0 0 1 1.79-4.249zm13.134 4.25a15.683 15.683 0 0 0 7.42-9.654 15.045 15.045 0 0 0-3.985-.54c-2.845 0-5.587.806-7.952 2.252a19.262 19.262 0 0 1 2.727 3.692 19.559 19.559 0 0 1 1.79 4.25zM26.821 52.127l.234-.142c-3.784-4.032-5.656-9.532-5.222-15.006-4.882-2.354-8.633-6.75-10.177-12.097-.08.045-.16.089-.238.135-3.563 2.09-6.112 5.466-7.177 9.503A15.771 15.771 0 0 0 5.78 46.4c2.743 4.83 7.86 7.828 13.355 7.828a15.21 15.21 0 0 0 7.686-2.099zm28.937-17.607c-1.064-4.037-3.613-7.414-7.176-9.503-.079-.046-.16-.09-.239-.135-1.544 5.346-5.294 9.743-10.177 12.097.435 5.474-1.437 10.974-5.222 15.006l.235.142a15.21 15.21 0 0 0 7.685 2.1c5.495 0 10.612-3 13.356-7.829a15.771 15.771 0 0 0 1.538-11.878z"/><path fill="#ff0" d="M57.433 48.284c-3.404 5.992-9.753 9.714-16.569 9.714A18.883 18.883 0 0 1 30 54.541a18.882 18.882 0 0 1-10.865 3.458c-6.815 0-13.164-3.723-16.569-9.715a19.568 19.568 0 0 1-1.91-14.738c1.322-5.011 4.485-9.2 8.906-11.794.454-.266.918-.51 1.389-.737a19.896 19.896 0 0 1-.065-1.594C10.886 8.711 19.46 0 30 0c10.54 0 19.114 8.713 19.114 19.422 0 .537-.023 1.07-.065 1.594.471.227.935.47 1.388.737 4.422 2.594 7.584 6.783 8.906 11.794a19.568 19.568 0 0 1-1.91 14.738zM14.6 19.7a18.734 18.734 0 0 1 4.503-.554c3.95 0 7.742 1.253 10.897 3.472a18.953 18.953 0 0 1 10.897-3.472c1.52 0 3.031.19 4.502.554.002-.093.004-.185.004-.279 0-8.63-6.91-15.652-15.403-15.652s-15.403 7.022-15.403 15.652c0 .094.002.186.003.279zm19.916 18.596a18.815 18.815 0 0 1-9.032 0c-.066 4.195 1.53 8.327 4.516 11.356 2.985-3.029 4.582-7.16 4.516-11.356zM34 34.536a15.782 15.782 0 0 0-1.543-3.79A15.538 15.538 0 0 0 30 27.5a15.543 15.543 0 0 0-2.459 3.246 15.775 15.775 0 0 0-1.543 3.79 15.13 15.13 0 0 0 4.002.538A15.13 15.13 0 0 0 34 34.537zm-9.673-5.675a19.253 19.253 0 0 1 2.727-3.692 15.243 15.243 0 0 0-7.952-2.251c-1.348 0-2.689.182-3.986.538a15.683 15.683 0 0 0 7.42 9.654 19.563 19.563 0 0 1 1.79-4.249zm13.134 4.25a15.683 15.683 0 0 0 7.42-9.654 15.045 15.045 0 0 0-3.985-.54c-2.845 0-5.587.806-7.952 2.252a19.262 19.262 0 0 1 2.727 3.692 19.559 19.559 0 0 1 1.79 4.25zM26.821 52.127l.234-.142c-3.784-4.032-5.656-9.532-5.222-15.006-4.882-2.354-8.633-6.75-10.177-12.097-.08.045-.16.089-.238.135-3.563 2.09-6.112 5.466-7.177 9.503A15.771 15.771 0 0 0 5.78 46.4c2.743 4.83 7.86 7.828 13.355 7.828a15.21 15.21 0 0 0 7.686-2.099zm28.937-17.607c-1.064-4.037-3.613-7.414-7.176-9.503-.079-.046-.16-.09-.239-.135-1.544 5.346-5.294 9.743-10.177 12.097.435 5.474-1.437 10.974-5.222 15.006l.235.142a15.21 15.21 0 0 0 7.685 2.1c5.495 0 10.612-3 13.356-7.829a15.771 15.771 0 0 0 1.538-11.878z"/></g></g></svg>